<?xml version="1.0" encoding="UTF-8"?>
<svg version="1.1" xmlns="http://www.w3.org/2000/svg" width="194" height="192">
<path d="M0 0 C1.19673843 -0.00365067 2.39347687 -0.00730133 3.6264801 -0.01106262 C6.87021043 -0.0177215 10.11355691 -0.0111419 13.3572557 0.00226951 C16.77229385 0.0136991 20.18731939 0.0094679 23.60237122 0.00752258 C29.33066757 0.00664356 35.05884469 0.01764032 40.78710938 0.03613281 C47.38895836 0.05732481 53.99063331 0.06080149 60.59250945 0.05457085 C66.9751972 0.04885797 73.35782431 0.05454351 79.74050331 0.0657444 C82.44322149 0.07036188 85.14590225 0.07127675 87.84862328 0.06915855 C91.62704703 0.06878643 95.40520939 0.08144864 99.18359375 0.09765625 C100.29187531 0.09517883 101.40015686 0.09270142 102.54202271 0.09014893 C115.83162642 0.18082269 125.74420124 3.36268167 135.61254883 12.50512695 C144.69435339 22.00425733 145.8575943 34.34653476 145.77001953 46.97460938 C145.7736702 48.17134781 145.77732086 49.36808624 145.78108215 50.60108948 C145.78774103 53.84481981 145.78116143 57.08816628 145.76775002 60.33186507 C145.75632043 63.74690323 145.76055163 67.16192876 145.76249695 70.57698059 C145.76337597 76.30527695 145.75237921 82.03345406 145.73388672 87.76171875 C145.71269473 94.36356774 145.70921804 100.96524269 145.71544868 107.56711882 C145.72116156 113.94980657 145.71547602 120.33243369 145.70427513 126.71511269 C145.69965765 129.41783087 145.69874278 132.12051162 145.70086098 134.82323265 C145.7012331 138.60165641 145.68857089 142.37981877 145.67236328 146.15820312 C145.6748407 147.26648468 145.67731812 148.37476624 145.67987061 149.51663208 C145.58919684 162.80623579 142.40733786 172.71881061 133.26489258 182.5871582 C123.7657622 191.66896277 111.42348477 192.83220368 98.79541016 192.74462891 C97.00030251 192.7501049 97.00030251 192.7501049 95.16893005 192.75569153 C91.92519972 192.7623504 88.68185325 192.7557708 85.43815446 192.7423594 C82.0231163 192.7309298 78.60809077 192.735161 75.19303894 192.73710632 C69.46474259 192.73798534 63.73656547 192.72698859 58.00830078 192.70849609 C51.40645179 192.6873041 44.80477684 192.68382742 38.20290071 192.69005805 C31.82021296 192.69577093 25.43758584 192.69008539 19.05490685 192.67888451 C16.35218866 192.67426703 13.64950791 192.67335216 10.94678688 192.67547035 C7.16836313 192.67584247 3.39020076 192.66318026 -0.38818359 192.64697266 C-2.05060593 192.65068878 -2.05060593 192.65068878 -3.74661255 192.65447998 C-17.03621626 192.56380621 -26.94879108 189.38194723 -36.81713867 180.23950195 C-45.89894323 170.74037158 -47.06218415 158.39809415 -46.97460938 145.77001953 C-46.97826004 144.5732811 -46.98191071 143.37654266 -46.985672 142.14353943 C-46.99233087 138.8998091 -46.98575127 135.65646262 -46.97233987 132.41276383 C-46.96091027 128.99772568 -46.96514147 125.58270014 -46.96708679 122.16764832 C-46.96796581 116.43935196 -46.95696905 110.71117484 -46.93847656 104.98291016 C-46.91728457 98.38106117 -46.91380789 91.77938622 -46.92003852 85.17751008 C-46.9257514 78.79482234 -46.92006586 72.41219522 -46.90886497 66.02951622 C-46.9042475 63.32679804 -46.90333263 60.62411728 -46.90545082 57.92139626 C-46.90582294 54.1429725 -46.89316073 50.36481014 -46.87695312 46.58642578 C-46.87943054 45.47814423 -46.88190796 44.36986267 -46.88446045 43.22799683 C-46.79378668 29.93839311 -43.6119277 20.02581829 -34.46948242 10.1574707 C-24.97035205 1.07566614 -12.62807462 -0.08757477 0 0 Z " fill="#000000" transform="translate(46.602294921875,-0.372314453125)"/>
<path d="M0 0 C24.24805804 -2.37773877 24.24805804 -2.37773877 30.14501953 1.359375 C33.23779423 4.75941701 34.85345162 8.69221329 36.27734375 13.01611328 C37.45551381 16.25050852 39.22510921 19.05842453 41 22 C41.83686355 20.77323411 42.66913165 19.54333424 43.5 18.3125 C44.07363281 17.50554687 44.64726563 16.69859375 45.23828125 15.8671875 C47.13667501 13.00320346 47.13667501 13.00320346 48.23046875 9.5078125 C49.87818774 5.47023834 51.21764548 2.28083114 55 0 C59.54532638 -1.12812083 63.95425651 -1.32307895 68.625 -1.375 C70.43230591 -1.41379272 70.43230591 -1.41379272 72.27612305 -1.45336914 C80.73657017 -1.17055066 80.73657017 -1.17055066 84.0324707 1.88305664 C85.58279351 4.18873346 86.80726491 6.49337635 88 9 C88.71027344 10.08667969 89.42054688 11.17335938 90.15234375 12.29296875 C90.74144531 13.24816406 91.33054687 14.20335938 91.9375 15.1875 C92.54464844 16.15042969 93.15179688 17.11335938 93.77734375 18.10546875 C95.28764148 21.68096594 94.88833107 23.25836458 94 27 C92.77587891 29.69042969 92.77587891 29.69042969 91.2265625 32.421875 C90.65583008 33.43967041 90.08509766 34.45746582 89.49707031 35.50610352 C88.22926504 37.70293824 86.95497365 39.89604032 85.67480469 42.08569336 C82.69249335 47.19351326 79.83011025 52.18540935 77.5390625 57.64453125 C73.25429288 67.21792554 73.25429288 67.21792554 69 70 C60.50237994 72.09581322 51.58994432 71.10917502 43 70 C43.55556414 66.45976841 44.40183891 63.96581674 46.35546875 60.96875 C47.04092773 59.87626953 47.04092773 59.87626953 47.74023438 58.76171875 C48.70849718 57.24856311 49.68514751 55.74074333 50.66992188 54.23828125 C53.37335255 50.18742434 53.37335255 50.18742434 53.62109375 45.55078125 C53.08613281 44.70902344 52.55117187 43.86726563 52 43 C51.20101847 41.52728551 50.40731067 40.05170473 49.6171875 38.57421875 C48.70616067 36.94361275 47.79201236 35.31474742 46.875 33.6875 C46.40707031 32.85154297 45.93914062 32.01558594 45.45703125 31.15429688 C44.3073741 29.10133767 43.15496198 27.04997798 42 25 C38.35091597 29.30591916 35.68549558 33.92035392 33.02124023 38.8581543 C30.55415191 43.3719011 27.91835501 47.70180544 25.08984375 52 C24.4251709 53.04309326 23.76049805 54.08618652 23.07568359 55.16088867 C21.75140881 57.2340227 20.39159749 59.28495219 18.99462891 61.30981445 C17.15163955 64.25187692 15.80582632 66.61914532 15 70 C16.21383477 74.25437873 18.41530504 77.4495791 21 81 C22.125 83.02083333 23.25 85.04166667 24.375 87.0625 C24.87773438 87.96097656 25.38046875 88.85945313 25.8984375 89.78515625 C27 92 27 92 27 94 C22.79285562 94.26221814 18.58781109 94.42147604 14.375 94.5625 C12.59029297 94.67561523 12.59029297 94.67561523 10.76953125 94.79101562 C2.19004889 95.00670094 2.19004889 95.00670094 -0.95068359 92.34985352 C-2.56284596 89.97978953 -3.77853837 87.5923599 -5 85 C-6.03956934 83.18828797 -7.08941161 81.38243928 -8.1484375 79.58203125 C-9.22782082 77.66101933 -10.30324268 75.73777697 -11.375 73.8125 C-12.50976404 71.78088534 -13.6451797 69.7496345 -14.78125 67.71875 C-15.3278125 66.74164063 -15.874375 65.76453125 -16.4375 64.7578125 C-17.81357538 62.32903945 -19.22010949 59.92481751 -20.65625 57.53125 C-21.0373291 56.89082764 -21.4184082 56.25040527 -21.81103516 55.59057617 C-22.80057707 53.93687407 -23.80215448 52.29039011 -24.8046875 50.64453125 C-26.19038083 47.57879797 -26.06489053 47.07095993 -25 44 C-24.11067193 42.22186917 -23.16774574 40.47016314 -22.19140625 38.73828125 C-21.61350342 37.70904541 -21.03560059 36.67980957 -20.44018555 35.61938477 C-19.82054932 34.52811279 -19.20091309 33.43684082 -18.5625 32.3125 C-17.93448486 31.19866943 -17.30646973 30.08483887 -16.65942383 28.93725586 C-12.12454367 20.91791538 -7.50403138 12.9521207 -2.79296875 5.03515625 C-1.81677866 3.38265145 -0.85833784 1.71667567 0 0 Z " fill="#FBFDFD" transform="translate(55,51)"/>
<path d="M0 0 C3.71477646 4.33390588 6.54780266 9.00400037 9.375 13.9375 C10.08849609 15.11602539 10.08849609 15.11602539 10.81640625 16.31835938 C11.25597656 17.08857422 11.69554687 17.85878906 12.1484375 18.65234375 C12.75437744 19.68862915 12.75437744 19.68862915 13.37255859 20.74584961 C14.5052976 24.81533569 12.50836987 28.01801353 10.64648438 31.61450195 C10.13408203 32.48034912 9.62167969 33.34619629 9.09375 34.23828125 C8.51906982 35.21595459 7.94438965 36.19362793 7.35229492 37.20092773 C6.7410376 38.22774658 6.12978027 39.25456543 5.5 40.3125 C4.87649658 41.36961182 4.25299316 42.42672363 3.6105957 43.51586914 C2.34629941 45.658703 1.0797946 47.80023541 -0.18896484 49.94042969 C-1.83935571 52.72860686 -3.4793391 55.52247367 -5.11328125 58.3203125 C-6.01300325 59.85938528 -6.91274163 61.39844849 -7.8125 62.9375 C-8.22628906 63.64624268 -8.64007813 64.35498535 -9.06640625 65.08520508 C-11.88583113 69.88583113 -11.88583113 69.88583113 -13 71 C-35.01980774 73.85688305 -35.01980774 73.85688305 -41.97900391 69.86474609 C-45.22910498 66.54289391 -46.55967511 62.32097467 -48 58 C-48.96183686 56.20815164 -49.95696361 54.43333097 -51 52.6875 C-51.66989665 51.46009069 -52.33800652 50.2316898 -53 49 C-57.09308706 53.74723339 -59.86573378 58.98443394 -62.8203125 64.46875 C-65.7964764 69.8982382 -65.7964764 69.8982382 -68 71 C-69.79293448 67.75069788 -71.58412522 64.50043773 -73.375 61.25 C-73.88289063 60.32960937 -74.39078125 59.40921875 -74.9140625 58.4609375 C-75.40390625 57.57148438 -75.89375 56.68203125 -76.3984375 55.765625 C-76.84880371 54.94868164 -77.29916992 54.13173828 -77.76318359 53.29003906 C-78.17133301 52.53432617 -78.57948242 51.77861328 -79 51 C-79.42289307 50.32638428 -79.84578613 49.65276855 -80.28149414 48.95874023 C-81 47 -81 47 -80.36352539 45.01489258 C-79.94578857 44.31517334 -79.52805176 43.6154541 -79.09765625 42.89453125 C-78.39044434 41.68349731 -78.39044434 41.68349731 -77.66894531 40.44799805 C-77.13881836 39.57828369 -76.60869141 38.70856934 -76.0625 37.8125 C-75.52850586 36.90862549 -74.99451172 36.00475098 -74.44433594 35.07348633 C-72.64567251 32.03907833 -70.82322701 29.01970526 -69 26 C-67.61743622 23.6855151 -66.23591779 21.37043168 -64.85546875 19.0546875 C-61.25643421 13.02469224 -57.63440633 7.00873556 -54 1 C-50.17658443 4.55257564 -47.82735168 8.91836826 -45.1875 13.375 C-44.39569336 14.65117188 -44.39569336 14.65117188 -43.58789062 15.953125 C-43.09869141 16.78070313 -42.60949219 17.60828125 -42.10546875 18.4609375 C-41.65324951 19.21165527 -41.20103027 19.96237305 -40.73510742 20.73583984 C-40 23 -40 23 -40.73535156 25.54101562 C-41.83484772 27.67887764 -42.92860904 29.80007805 -44.12890625 31.8828125 C-44.52400391 32.57503906 -44.91910156 33.26726562 -45.32617188 33.98046875 C-45.73416016 34.68816406 -46.14214844 35.39585938 -46.5625 36.125 C-47.37873501 37.54287303 -48.19263565 38.96209312 -49.00390625 40.3828125 C-49.54253296 41.31697998 -49.54253296 41.31697998 -50.09204102 42.27001953 C-51.14195682 44.15775848 -51.14195682 44.15775848 -52 47 C-43.34633332 48.43039088 -34.27182278 49.42508057 -26 46 C-19.09417193 39.4038617 -15.36838806 30.10222777 -11.57324219 21.48095703 C-9.51770634 16.93287664 -7.09534165 12.66892186 -4.5625 8.375 C-2.20940413 4.22609436 -2.20940413 4.22609436 0 0 Z " fill="#FB3559" transform="translate(150,74)"/>
<path d="M0 0 C4.37385799 -0.26210888 8.74569809 -0.42144886 13.125 -0.5625 C14.3625 -0.63791016 15.6 -0.71332031 16.875 -0.79101562 C25.85817354 -1.00835047 25.85817354 -1.00835047 29.06762695 1.82592773 C30.62226504 4.15018864 31.82691709 6.46466933 33 9 C34.06541016 10.63001953 34.06541016 10.63001953 35.15234375 12.29296875 C35.74144531 13.24816406 36.33054688 14.20335938 36.9375 15.1875 C37.54464844 16.15042969 38.15179688 17.11335938 38.77734375 18.10546875 C40.28764148 21.68096594 39.88833107 23.25836458 39 27 C37.77587891 29.69042969 37.77587891 29.69042969 36.2265625 32.421875 C35.65583008 33.43967041 35.08509766 34.45746582 34.49707031 35.50610352 C33.22926504 37.70293824 31.95497365 39.89604032 30.67480469 42.08569336 C27.69249335 47.19351326 24.83011025 52.18540935 22.5390625 57.64453125 C18.25429288 67.21792554 18.25429288 67.21792554 14 70 C5.50237994 72.09581322 -3.41005568 71.10917502 -12 70 C-11.40751402 65.85259811 -10.01763643 62.91654327 -7.90234375 59.31640625 C-7.26876953 58.22996826 -6.63519531 57.14353027 -5.98242188 56.02416992 C-5.64782959 55.45797943 -5.3132373 54.89178894 -4.96850586 54.30844116 C-3.93175671 52.55277412 -2.90506004 50.79157717 -1.88085938 49.02856445 C0.97838262 44.11365912 3.85984966 39.21339422 6.80859375 34.3515625 C7.18943115 33.71404053 7.57026855 33.07651855 7.96264648 32.41967773 C8.92168755 30.81826649 9.89761724 29.22700195 10.875 27.63671875 C12.23728828 24.44385559 11.91362128 23.29756823 11 20 C9.89767681 17.66657477 9.89767681 17.66657477 8.49609375 15.390625 C8.00302734 14.55402344 7.50996094 13.71742187 7.00195312 12.85546875 C6.48568359 11.99566406 5.96941406 11.13585937 5.4375 10.25 C4.41363652 8.52706741 3.39140668 6.80316259 2.37109375 5.078125 C1.91661865 4.31918945 1.46214355 3.56025391 0.99389648 2.77832031 C0 1 0 1 0 0 Z " fill="#FDFDFD" transform="translate(110,51)"/>
<path d="M0 0 C24.20914449 -2.37392295 24.20914449 -2.37392295 30.14501953 1.34326172 C33.77180462 5.28659072 35.30674034 9.99718738 37 15 C38.32 17.64 39.64 20.28 41 23 C32.09 23 23.18 23 14 23 C13.34 24.65 12.68 26.3 12 28 C11.14451484 29.63251314 10.25852044 31.24928898 9.34765625 32.8515625 C8.82324951 33.77702881 8.29884277 34.70249512 7.75854492 35.65600586 C7.1988501 36.63577393 6.63915527 37.61554199 6.0625 38.625 C5.20265503 40.13815796 5.20265503 40.13815796 4.32543945 41.68188477 C-1.06433318 51.15132812 -6.51742834 60.58404026 -12 70 C-16.23934081 66.34642291 -18.63373131 61.82563798 -21.3125 57 C-21.77978516 56.19304687 -22.24707031 55.38609375 -22.72851562 54.5546875 C-23.16486328 53.77351563 -23.60121094 52.99234375 -24.05078125 52.1875 C-24.44950439 51.47980469 -24.84822754 50.77210937 -25.2590332 50.04296875 C-26.18632616 47.48626779 -25.97297378 46.52240325 -25 44 C-24.11067193 42.22186917 -23.16774574 40.47016314 -22.19140625 38.73828125 C-21.61350342 37.70904541 -21.03560059 36.67980957 -20.44018555 35.61938477 C-19.82054932 34.52811279 -19.20091309 33.43684082 -18.5625 32.3125 C-17.93448486 31.19866943 -17.30646973 30.08483887 -16.65942383 28.93725586 C-12.12454367 20.91791538 -7.50403138 12.9521207 -2.79296875 5.03515625 C-1.81677866 3.38265145 -0.85833784 1.71667567 0 0 Z " fill="#33F1EB" transform="translate(55,51)"/>
<path d="M0 0 C3.82341557 3.55257564 6.17264832 7.91836826 8.8125 12.375 C9.60430664 13.65117188 9.60430664 13.65117188 10.41210938 14.953125 C10.90130859 15.78070313 11.39050781 16.60828125 11.89453125 17.4609375 C12.34675049 18.21165527 12.79896973 18.96237305 13.26489258 19.73583984 C14 22 14 22 13.26464844 24.54101562 C12.16515228 26.67887764 11.07139096 28.80007805 9.87109375 30.8828125 C9.27844727 31.92115234 9.27844727 31.92115234 8.67382812 32.98046875 C8.26583984 33.68816406 7.85785156 34.39585938 7.4375 35.125 C6.62126499 36.54287303 5.80736435 37.96209312 4.99609375 39.3828125 C4.45746704 40.31697998 4.45746704 40.31697998 3.90795898 41.27001953 C2.85804318 43.15775848 2.85804318 43.15775848 2 46 C10.58 46 19.16 46 28 46 C28 46.33 28 46.66 28 47 C27.21463867 46.92031982 26.42927734 46.84063965 25.62011719 46.75854492 C12.66223866 45.66954506 12.66223866 45.66954506 0 48 C-5.78020145 52.89295994 -8.58786057 59.98634826 -11.11572266 66.97460938 C-12 69 -12 69 -14 70 C-15.79293448 66.75069788 -17.58412522 63.50043773 -19.375 60.25 C-19.88289063 59.32960937 -20.39078125 58.40921875 -20.9140625 57.4609375 C-21.40390625 56.57148438 -21.89375 55.68203125 -22.3984375 54.765625 C-22.84880371 53.94868164 -23.29916992 53.13173828 -23.76318359 52.29003906 C-24.17133301 51.53432617 -24.57948242 50.77861328 -25 50 C-25.42289307 49.32638428 -25.84578613 48.65276855 -26.28149414 47.95874023 C-27 46 -27 46 -26.36352539 44.01489258 C-25.94578857 43.31517334 -25.52805176 42.6154541 -25.09765625 41.89453125 C-24.39044434 40.68349731 -24.39044434 40.68349731 -23.66894531 39.44799805 C-23.13881836 38.57828369 -22.60869141 37.70856934 -22.0625 36.8125 C-21.52850586 35.90862549 -20.99451172 35.00475098 -20.44433594 34.07348633 C-18.64567251 31.03907833 -16.82322701 28.01970526 -15 25 C-13.61743622 22.6855151 -12.23591779 20.37043168 -10.85546875 18.0546875 C-7.25643421 12.02469224 -3.63440633 6.00873556 0 0 Z " fill="#FA395D" transform="translate(96,75)"/>
<path d="M0 0 C4.95036585 1.65012195 6.33936838 6.33564645 8.75 10.75 C9.26949219 11.6575 9.78898437 12.565 10.32421875 13.5 C10.81019531 14.38171875 11.29617187 15.2634375 11.796875 16.171875 C12.24385742 16.9772168 12.69083984 17.78255859 13.15136719 18.61230469 C14.48123044 22.35397977 13.56126204 24.81131956 11.90844727 28.31176758 C10.46736366 30.81668914 9.02521533 33.3201223 7.5625 35.8125 C7.05912109 36.69615234 6.55574219 37.57980469 6.03710938 38.49023438 C5.55177734 39.32490234 5.06644531 40.15957031 4.56640625 41.01953125 C4.12240479 41.78370361 3.67840332 42.54787598 3.22094727 43.33520508 C2.81803467 43.8845874 2.41512207 44.43396973 2 45 C1.34 45 0.68 45 0 45 C-2.64601604 41.77900399 -4.77925566 38.20935529 -7 34.6875 C-7.66128906 33.73037109 -8.32257813 32.77324219 -9.00390625 31.78710938 C-10.8544779 28.81939998 -12.18266572 26.40574779 -13 23 C-11.80296909 18.73844299 -9.58552565 15.55175138 -7 12 C-6.27693574 10.77701163 -5.5678855 9.54544886 -4.8828125 8.30078125 C-4.30273438 7.31464844 -3.72265625 6.32851563 -3.125 5.3125 C-2.23167969 3.79076172 -2.23167969 3.79076172 -1.3203125 2.23828125 C-0.88460937 1.49964844 -0.44890625 0.76101562 0 0 Z " fill="#34F0EA" transform="translate(109,52)"/>
<path d="M0 0 C3.82341557 3.55257564 6.17264832 7.91836826 8.8125 12.375 C9.60430664 13.65117188 9.60430664 13.65117188 10.41210938 14.953125 C10.90130859 15.78070313 11.39050781 16.60828125 11.89453125 17.4609375 C12.34675049 18.21165527 12.79896973 18.96237305 13.26489258 19.73583984 C14 22 14 22 13.26025391 24.54101562 C12.84437012 25.35248047 12.42848633 26.16394531 12 27 C11.66814697 27.65629395 11.33629395 28.31258789 10.99438477 28.98876953 C9.85559477 31.03716572 8.71345262 33.08340714 7.5625 35.125 C7.16740234 35.84042969 6.77230469 36.55585937 6.36523438 37.29296875 C5.97787109 37.98261719 5.59050781 38.67226562 5.19140625 39.3828125 C4.66848999 40.31697998 4.66848999 40.31697998 4.13500977 41.27001953 C2.93468167 43.09955812 1.59502896 44.50924931 0 46 C-1.40617603 43.67182577 -2.80524841 41.34018014 -4.19140625 39 C-5.43517539 36.93690129 -6.71623678 34.89597414 -8.02734375 32.875 C-8.67832031 31.84375 -9.32929687 30.8125 -10 29.75 C-10.928125 28.31914063 -10.928125 28.31914063 -11.875 26.859375 C-13 24 -13 24 -12.5390625 21.2265625 C-10.44243678 16.83109844 -7.9641709 12.74533034 -5.375 8.625 C-4.859375 7.79355469 -4.34375 6.96210937 -3.8125 6.10546875 C-2.54713205 4.06682038 -1.27621134 2.03187118 0 0 Z " fill="#030404" transform="translate(96,75)"/>
</svg>
